#N canvas 1438 162 1366 685 10;
#X obj 6 650 dac~;
#X obj 38 323 *~;
#X obj 563 115 +~ 1;
#X obj 82 385 phasor~;
#X obj 28 570 vol~;
#X obj 67 582 hsl 128 15 0 100 0 0 empty empty empty -2 -8 0 10 -262144
-1 -1 9600 1;
#X obj 554 166 send~ lfo1;
#X obj 53 292 receive~ lfo1;
#X obj 105 428 lop~;
#X obj 560 54 phasor~ 10;
#X obj 564 85 cos~ 10;
#X obj 643 84 sin~;
#X obj 653 161 send~ lfo1op;
#X obj 237 572 hsl 128 15 0 1 0 0 empty empty empty -2 -8 0 10 -262144
-1 -1 6900 1;
#X obj 238 599 hsl 128 15 0 1 0 0 empty empty empty -2 -8 0 10 -262144
-1 -1 8800 1;
#X floatatom 96 34 5 0 0 0 - - -;
#X obj 57 112 send freq;
#X obj 21 184 receive freq;
#X obj 84 328 receive freq;
#X obj 207 386 snapshot~;
#X obj 182 217 metro 16;
#X obj 228 330 expr~ $v1*$f2 + $f3;
#X obj 230 250 receive~ lfo1;
#X floatatom 285 291 5 0 0 0 - - -;
#X floatatom 341 266 5 0 0 0 - - -;
#X floatatom 183 159 5 0 0 0 - - -;
#X floatatom 558 23 5 0 0 0 - - -;
#X obj 26 529 expr~ $v1*$f2 + $v3*$f4 + $v5*$f6;
#X obj 239 624 hsl 128 15 0 1 0 0 empty empty empty -2 -8 0 10 -262144
-1 -1 7900 1;
#X text 387 598 lpf saw;
#X text 386 568 sin fundamental am flo;
#X text 391 625 comment;
#X obj 725 26 hradio 15 1 0 10 empty empty empty 0 -8 0 10 -262144
-1 -1 8;
#X obj 743 60 /;
#X text 561 -11 comment;
#X obj 753 93 osc~;
#X obj 761 161 send~ lfo2;
#X obj 931 27 hradio 15 1 0 5 empty empty empty 0 -8 0 10 -262144 -1
-1 2;
#X text 927 6 comment;
#X obj 916 116 osc~;
#X obj 915 67 *;
#X obj 915 164 send~ lfo3;
#X obj 468 358 receive~ lfo2;
#X obj 373 351 square~;
#X floatatom 528 382 5 0 0 0 - - -;
#X floatatom 584 388 5 0 0 0 - - -;
#X obj 468 414 expr~ $v1*$f2 + $f3;
#X obj 534 7 bng 15 250 50 0 empty empty empty 17 7 0 10 -262144 -1
-1;
#X obj 407 402 *~;
#X obj 427 318 receive~ lfo1op;
#X obj 759 126 +~ 1;
#X obj 652 121 +~ 1;
#X obj 22 218 osc~;
#X floatatom 181 86 5 0 0 0 - - -;
#X obj 181 121 send f2;
#X obj 371 299 receive f2;
#X obj 138 385 phasor~;
#X obj 143 360 * 0.99;
#X obj 432 469 vcf~;
#X floatatom 498 441 5 0 0 0 - - -;
#X obj 203 31 hradio 15 1 0 10 empty empty empty 0 -8 0 10 -262144
-1 -1 2;
#X obj 184 64 /;
#X obj 102 650 writesf~;
#X msg 142 610 start;
#X msg 94 610 stop;
#X msg 188 650 open C://Users/edward.dalley/Sounds/alarm.wav;
#X connect 1 0 27 0;
#X connect 2 0 6 0;
#X connect 3 0 8 0;
#X connect 4 0 0 0;
#X connect 4 0 0 1;
#X connect 4 0 62 0;
#X connect 5 0 4 1;
#X connect 7 0 1 1;
#X connect 8 0 27 2;
#X connect 9 0 10 0;
#X connect 9 0 11 0;
#X connect 10 0 2 0;
#X connect 11 0 51 0;
#X connect 13 0 27 1;
#X connect 14 0 27 3;
#X connect 15 0 16 0;
#X connect 15 0 61 0;
#X connect 17 0 52 0;
#X connect 18 0 3 0;
#X connect 18 0 57 0;
#X connect 19 0 8 1;
#X connect 20 0 19 0;
#X connect 21 0 19 0;
#X connect 22 0 21 0;
#X connect 23 0 21 1;
#X connect 24 0 21 2;
#X connect 25 0 20 0;
#X connect 26 0 9 0;
#X connect 26 0 33 0;
#X connect 26 0 40 0;
#X connect 27 0 4 0;
#X connect 28 0 27 5;
#X connect 32 0 33 1;
#X connect 33 0 35 0;
#X connect 35 0 50 0;
#X connect 37 0 40 1;
#X connect 39 0 41 0;
#X connect 40 0 39 0;
#X connect 42 0 46 0;
#X connect 43 0 48 0;
#X connect 44 0 46 1;
#X connect 45 0 46 2;
#X connect 46 0 58 1;
#X connect 47 0 26 0;
#X connect 48 0 58 0;
#X connect 49 0 48 1;
#X connect 50 0 36 0;
#X connect 51 0 12 0;
#X connect 52 0 1 0;
#X connect 53 0 54 0;
#X connect 55 0 43 0;
#X connect 55 0 44 0;
#X connect 56 0 8 0;
#X connect 57 0 56 0;
#X connect 58 0 27 4;
#X connect 59 0 58 2;
#X connect 60 0 61 1;
#X connect 61 0 53 0;
#X connect 63 0 62 0;
#X connect 64 0 62 0;
#X connect 65 0 62 0;
